<?xml version="1.0" standalone="no"?>
<!DOCTYPE svg PUBLIC "-//W3C//DTD SVG 20010904//EN"
 "http://www.w3.org/TR/2001/REC-SVG-20010904/DTD/svg10.dtd">
<svg version="1.0" xmlns="http://www.w3.org/2000/svg"
 width="200.000000pt" height="200.000000pt" viewBox="0 0 200.000000 200.000000"
 preserveAspectRatio="xMidYMid meet">
<metadata>
Created by potrace 1.15, written by Peter Selinger 2001-2017
</metadata>
<g transform="translate(0.000000,200.000000) scale(0.100000,-0.100000)"
fill="#dbdbdb" stroke="none">
<path d="M815 1599 c-117 -13 -262 -45 -292 -64 -22 -15 -23 -21 -23 -124 l0
-109 37 -19 c67 -35 73 -60 73 -295 0 -237 -3 -231 91 -207 39 10 69 10 147 1
122 -15 182 -15 304 0 78 9 108 9 147 -1 94 -24 91 -31 91 212 0 239 5 258 74
291 l36 17 0 109 c0 103 -1 110 -22 124 -83 53 -448 89 -663 65z"/>
<path d="M419 1183 c-11 -13 -14 -74 -14 -300 l0 -285 30 -26 c17 -15 68 -40
115 -56 52 -18 99 -42 121 -61 27 -25 52 -35 100 -43 116 -20 251 -25 359 -13
139 16 174 26 202 59 16 18 51 36 110 56 161 53 158 46 158 378 0 289 -3 301
-63 306 -67 6 -67 5 -67 -243 0 -203 -2 -224 -17 -230 -108 -46 -137 -52 -172
-38 -30 13 -47 13 -111 3 -93 -16 -265 -16 -347 -1 -49 9 -69 9 -101 -2 -37
-13 -45 -12 -113 13 l-74 26 -3 225 c-2 196 -4 226 -19 237 -24 17 -78 15 -94
-5z"/>
</g>
</svg>
